# xmcd
#
# Track frame offsets: 
#        150
#        18412
#        32917
#        49272
#        67562
#        88923
#        104082
#        120895
#        134720
#        149034
#        166673
#        183735
#        195292
#
# Disc length: 2836 seconds
#
# Revision: 0
# Processed by: cddbd v1.5.2PL0 Copyright (c) Steve Scherf et al.
# Submitted via: ExactAudioCopy v1.0b3
#
DISCID=b70b120d
DTITLE=A Full Hand of Blues - Lady Luck
DYEAR=2014
DGENRE=Blues
TTITLE0=You Got To Lose
TTITLE1=Checkin' On My Baby
TTITLE2=Ya Ya
TTITLE3=Matchbox Blues
TTITLE4=Big Stars Falling Blues
TTITLE5=Fishing In My Pond
TTITLE6=Me And My Woman
TTITLE7=A Girl In Every City
TTITLE8=Mailbox Blues
TTITLE9=If You Got To Love Everybody
TTITLE10=Mr Downchild
TTITLE11=You're On The Top
TTITLE12=Next Time You See Me
EXTD=
EXTT0=
EXTT1=
EXTT2=
EXTT3=
EXTT4=
EXTT5=
EXTT6=
EXTT7=
EXTT8=
EXTT9=
EXTT10=
EXTT11=
EXTT12=
PLAYORDER=
